<svg xmlns="http://www.w3.org/2000/svg" width="1800" height="1400" viewBox="0 0 1800 1400" role="img" aria-label="Modern riverside homes and city forms">
  <defs>
    <linearGradient id="sky" x1="0" x2="1" y1="0" y2="1">
      <stop offset="0" stop-color="#fff8ea"/>
      <stop offset="0.48" stop-color="#dfe8dd"/>
      <stop offset="1" stop-color="#8db4ad"/>
    </linearGradient>
    <linearGradient id="deep" x1="0" x2="0" y1="0" y2="1">
      <stop offset="0" stop-color="#2f7d6d"/>
      <stop offset="1" stop-color="#10201d"/>
    </linearGradient>
    <linearGradient id="sun" x1="0" x2="1" y1="0" y2="1">
      <stop offset="0" stop-color="#f6c78f"/>
      <stop offset="1" stop-color="#d9824b"/>
    </linearGradient>
    <filter id="softShadow" x="-20%" y="-20%" width="140%" height="150%">
      <feDropShadow dx="0" dy="28" stdDeviation="26" flood-color="#10201d" flood-opacity="0.18"/>
    </filter>
  </defs>

  <rect width="1800" height="1400" fill="url(#sky)"/>
  <circle cx="1320" cy="250" r="170" fill="url(#sun)" opacity="0.92"/>
  <path d="M0 900 C280 820 460 980 740 890 C1010 802 1200 680 1800 760 L1800 1400 L0 1400 Z" fill="#e7ddcb"/>
  <path d="M0 1050 C300 940 530 1090 840 996 C1110 914 1320 840 1800 910 L1800 1400 L0 1400 Z" fill="#5f96a8" opacity="0.6"/>
  <path d="M0 1120 C290 1030 560 1180 880 1088 C1170 1004 1390 930 1800 990 L1800 1400 L0 1400 Z" fill="#0f2924" opacity="0.88"/>

  <g filter="url(#softShadow)">
    <rect x="330" y="450" width="270" height="440" rx="18" fill="#fffaf1"/>
    <rect x="642" y="350" width="330" height="540" rx="20" fill="#ffffff"/>
    <rect x="1020" y="510" width="300" height="380" rx="18" fill="#f7efe1"/>
    <path d="M300 474 L465 340 L630 474 Z" fill="#0f2924"/>
    <path d="M612 372 L806 220 L1000 372 Z" fill="#2f7d6d"/>
    <path d="M990 530 L1170 390 L1350 530 Z" fill="#0f2924"/>
    <rect x="388" y="560" width="70" height="86" rx="8" fill="#dfe8dd"/>
    <rect x="482" y="560" width="70" height="86" rx="8" fill="#dfe8dd"/>
    <rect x="720" y="485" width="82" height="96" rx="8" fill="#dfe8dd"/>
    <rect x="838" y="485" width="82" height="96" rx="8" fill="#dfe8dd"/>
    <rect x="1114" y="616" width="94" height="126" rx="10" fill="#dfe8dd"/>
    <rect x="745" y="692" width="124" height="198" rx="12" fill="#d9824b"/>
  </g>

  <g opacity="0.24" fill="none" stroke="#10201d" stroke-width="4">
    <path d="M170 260 H510"/>
    <path d="M150 310 H430"/>
    <path d="M1230 1010 H1620"/>
    <path d="M1280 1060 H1700"/>
  </g>
</svg>
