<svg xmlns="http://www.w3.org/2000/svg" width="1600" height="1400" viewBox="0 0 1600 1400" role="img" aria-label="Stylised suburb market map">
  <defs>
    <linearGradient id="bg" x1="0" x2="1" y1="0" y2="1">
      <stop offset="0" stop-color="#fffaf1"/>
      <stop offset="0.56" stop-color="#dfe8dd"/>
      <stop offset="1" stop-color="#95b6b0"/>
    </linearGradient>
    <filter id="shadow" x="-20%" y="-20%" width="140%" height="140%">
      <feDropShadow dx="0" dy="20" stdDeviation="24" flood-color="#10201d" flood-opacity="0.14"/>
    </filter>
  </defs>

  <rect width="1600" height="1400" fill="url(#bg)"/>
  <g fill="none" stroke="#5f96a8" stroke-linecap="round" opacity="0.38">
    <path d="M-80 965 C220 820 420 840 660 705 C920 560 1070 520 1680 610" stroke-width="74"/>
    <path d="M-110 550 C210 650 390 570 660 640 C920 710 1130 820 1710 760" stroke-width="48"/>
    <path d="M220 1480 C360 1120 485 930 680 690 C835 500 985 335 1180 -40" stroke-width="40"/>
  </g>

  <g filter="url(#shadow)">
    <rect x="260" y="310" width="290" height="210" rx="20" fill="#fffaf1"/>
    <rect x="630" y="260" width="360" height="260" rx="22" fill="#ffffff"/>
    <rect x="1060" y="360" width="270" height="210" rx="20" fill="#fffaf1"/>
    <rect x="300" y="790" width="310" height="230" rx="20" fill="#ffffff"/>
    <rect x="720" y="780" width="280" height="220" rx="20" fill="#fffaf1"/>
    <rect x="1100" y="820" width="250" height="190" rx="20" fill="#ffffff"/>
  </g>

  <g fill="#2f7d6d">
    <circle cx="405" cy="415" r="24"/>
    <circle cx="810" cy="390" r="28"/>
    <circle cx="1198" cy="465" r="24"/>
    <circle cx="455" cy="905" r="26"/>
    <circle cx="860" cy="890" r="24"/>
    <circle cx="1225" cy="918" r="22"/>
  </g>

  <g fill="#10201d" opacity="0.8">
    <rect x="350" y="465" width="110" height="12" rx="6"/>
    <rect x="740" y="450" width="150" height="12" rx="6"/>
    <rect x="1140" y="520" width="120" height="12" rx="6"/>
    <rect x="390" y="965" width="135" height="12" rx="6"/>
    <rect x="810" y="945" width="120" height="12" rx="6"/>
    <rect x="1180" y="965" width="100" height="12" rx="6"/>
  </g>

  <path d="M120 1180 C360 1125 575 1188 820 1135 C1060 1085 1220 1040 1480 1078" fill="none" stroke="#d9824b" stroke-width="12" stroke-linecap="round" opacity="0.78"/>
</svg>
